<?xml version="1.0" ?><!DOCTYPE svg  PUBLIC '-//W3C//DTD SVG 1.1//EN'  'http://www.w3.org/Graphics/SVG/1.1/DTD/svg11.dtd'><svg enable-background="new 0 0 500 500" height="500px" id="facebook" version="1.1" viewBox="0 0 500 500" width="500px" xml:space="preserve" xmlns="http://www.w3.org/2000/svg" xmlns:xlink="http://www.w3.org/1999/xlink"><g><path d="M421.976,396.568c0,14.029-11.38,25.408-25.409,25.408H103.433c-14.03,0-25.408-11.379-25.408-25.408   V103.432c0-14.034,11.378-25.409,25.408-25.409h293.133c14.029,0,25.409,11.375,25.409,25.409V396.568z" fill="#0071BC"/><g><defs><path d="M421.976,396.568c0,14.029-11.38,25.408-25.409,25.408H103.433c-14.03,0-25.408-11.379-25.408-25.408     V103.432c0-14.034,11.378-25.409,25.408-25.409h293.133c14.029,0,25.409,11.375,25.409,25.409V396.568z" id="SVGID_1_"/></defs><clipPath id="SVGID_2_"><use overflow="visible" xlink:href="#SVGID_1_"/></clipPath><g clip-path="url(#SVGID_2_)" opacity="0.25"><path d="M304.426,213.954h-36.795v-20.997h36.361V156.59c0,0-27.266,0-36.361,0c-38.325,0-37.645,36.367-37.645,36.367v20.997     h-27.869v38.282h27.869v90.02h37.645v-90.02h36.795V213.954z"/><path d="M305.134,214.662h-36.796v-20.998h36.361v-36.367c0,0-27.266,0-36.361,0     c-38.325,0-37.644,36.367-37.644,36.367v20.998h-27.869v38.282h27.869v90.02h37.644v-90.02h36.796V214.662z" opacity="0.997"/><path d="M305.839,215.367h-36.795V194.37h36.361v-36.367c0,0-27.266,0-36.361,0     c-38.325,0-37.645,36.367-37.645,36.367v20.997h-27.869v38.283h27.869v90.02h37.645v-90.02h36.795V215.367z" opacity="0.994"/><path d="M306.545,216.074H269.75v-20.997h36.362v-36.367c0,0-27.267,0-36.362,0     c-38.325,0-37.644,36.367-37.644,36.367v20.997h-27.869v38.283h27.869v90.019h37.644v-90.019h36.795V216.074z" opacity="0.991"/><path d="M307.252,216.78h-36.795v-20.997h36.361v-36.367c0,0-27.266,0-36.361,0     c-38.325,0-37.645,36.367-37.645,36.367v20.997h-27.868v38.283h27.868v90.02h37.645v-90.02h36.795V216.78z" opacity="0.9881"/><path d="M307.958,217.487h-36.795V196.49h36.361v-36.367c0,0-27.266,0-36.361,0     c-38.325,0-37.645,36.367-37.645,36.367v20.997H205.65v38.283h27.868v90.02h37.645v-90.02h36.795V217.487z" opacity="0.9851"/><path d="M308.664,218.192h-36.795v-20.997h36.361v-36.367c0,0-27.266,0-36.361,0     c-38.325,0-37.644,36.367-37.644,36.367v20.997h-27.869v38.282h27.869v90.02h37.644v-90.02h36.795V218.192z" opacity="0.9821"/><path d="M309.37,218.899h-36.794v-20.997h36.361v-36.367c0,0-27.266,0-36.361,0     c-38.326,0-37.645,36.367-37.645,36.367v20.997h-27.869v38.283h27.869v90.02h37.645v-90.02h36.794V218.899z" opacity="0.9791"/><path d="M310.077,219.605h-36.795v-20.997h36.361v-36.368c0,0-27.266,0-36.361,0     c-38.325,0-37.645,36.368-37.645,36.368v20.997h-27.869v38.284h27.869v90.02h37.645v-90.02h36.795V219.605z" opacity="0.9761"/><path d="M310.783,220.312h-36.795v-20.998h36.362v-36.367c0,0-27.267,0-36.362,0     c-38.325,0-37.645,36.367-37.645,36.367v20.998h-27.868v38.282h27.868v90.02h37.645v-90.02h36.795V220.312z" opacity="0.9731"/><path d="M311.489,221.018h-36.794v-20.997h36.361v-36.368c0,0-27.266,0-36.361,0     c-38.326,0-37.645,36.368-37.645,36.368v20.997h-27.868v38.283h27.868v90.02h37.645v-90.02h36.794V221.018z" opacity="0.9701"/><path d="M312.196,221.724H275.4v-20.997h36.362V164.36c0,0-27.266,0-36.362,0     c-38.325,0-37.644,36.367-37.644,36.367v20.997h-27.868v38.282h27.868v90.02H275.4v-90.02h36.796V221.724z" opacity="0.9672"/><path d="M312.902,222.43h-36.795v-20.997h36.361v-36.367c0,0-27.266,0-36.361,0     c-38.325,0-37.645,36.367-37.645,36.367v20.997h-27.868v38.283h27.868v90.02h37.645v-90.02h36.795V222.43z" opacity="0.9642"/><path d="M313.608,223.137h-36.795V202.14h36.361v-36.368c0,0-27.266,0-36.361,0     c-38.325,0-37.645,36.368-37.645,36.368v20.997h-27.868v38.283h27.868v90.02h37.645v-90.02h36.795V223.137z" opacity="0.9612"/><path d="M314.314,223.843H277.52v-20.997h36.361v-36.367c0,0-27.266,0-36.361,0     c-38.325,0-37.645,36.367-37.645,36.367v20.997h-27.869v38.282h27.869v90.02h37.645v-90.02h36.795V223.843z" opacity="0.9582"/><path d="M315.021,224.549h-36.796v-20.997h36.362v-36.367c0,0-27.267,0-36.362,0     c-38.325,0-37.645,36.367-37.645,36.367v20.997h-27.868v38.283h27.868v90.02h37.645v-90.02h36.796V224.549z" opacity="0.9552"/><path d="M315.728,225.255h-36.795v-20.997h36.361v-36.367c0,0-27.266,0-36.361,0     c-38.325,0-37.645,36.367-37.645,36.367v20.997h-27.869v38.284h27.869v90.02h37.645v-90.02h36.795V225.255z" opacity="0.9522"/><path d="M316.434,225.962h-36.795v-20.997h36.362v-36.367c0,0-27.267,0-36.362,0     c-38.325,0-37.644,36.367-37.644,36.367v20.997h-27.869v38.283h27.869v90.019h37.644v-90.019h36.795V225.962z" opacity="0.9493"/><path d="M317.14,226.668h-36.795v-20.997h36.362v-36.367c0,0-27.267,0-36.362,0     c-38.325,0-37.644,36.367-37.644,36.367v20.997h-27.868v38.283h27.868v90.02h37.644v-90.02h36.795V226.668z" opacity="0.9463"/><path d="M317.847,227.374h-36.795v-20.997h36.361V170.01c0,0-27.267,0-36.361,0     c-38.326,0-37.645,36.367-37.645,36.367v20.997h-27.868v38.283h27.868v90.019h37.645v-90.019h36.795V227.374z" opacity="0.9433"/><path d="M318.553,228.081h-36.795v-20.997h36.361v-36.367c0,0-27.266,0-36.361,0     c-38.326,0-37.645,36.367-37.645,36.367v20.997h-27.868v38.283h27.868v90.02h37.645v-90.02h36.795V228.081z" opacity="0.9403"/><path d="M319.259,228.787h-36.795v-20.997h36.362v-36.367c0,0-27.267,0-36.362,0     c-38.325,0-37.644,36.367-37.644,36.367v20.997h-27.869v38.283h27.869v90.02h37.644v-90.02h36.795V228.787z" opacity="0.9373"/><path d="M319.965,229.493H283.17v-20.997h36.361v-36.367c0,0-27.266,0-36.361,0     c-38.325,0-37.645,36.367-37.645,36.367v20.997h-27.868v38.282h27.868v90.02h37.645v-90.02h36.795V229.493z" opacity="0.9343"/><path d="M320.671,230.199h-36.795v-20.996h36.362v-36.367c0,0-27.267,0-36.362,0     c-38.325,0-37.644,36.367-37.644,36.367v20.996h-27.868v38.283h27.868v90.02h37.644v-90.02h36.795V230.199z" opacity="0.9313"/><path d="M321.378,230.906h-36.795v-20.997h36.362v-36.368c0,0-27.267,0-36.362,0     c-38.326,0-37.645,36.368-37.645,36.368v20.997H219.07v38.283h27.868v90.021h37.645v-90.021h36.795V230.906z" opacity="0.9284"/><path d="M322.084,231.612h-36.795v-20.997h36.362v-36.368c0,0-27.267,0-36.362,0     c-38.325,0-37.645,36.368-37.645,36.368v20.997h-27.868v38.282h27.868v90.02h37.645v-90.02h36.795V231.612z" opacity="0.9254"/><path d="M322.791,232.319h-36.795v-20.997h36.361v-36.368c0,0-27.266,0-36.361,0     c-38.325,0-37.645,36.368-37.645,36.368v20.997h-27.868v38.283h27.868v90.02h37.645v-90.02h36.795V232.319z" opacity="0.9224"/><path d="M323.496,233.024h-36.795v-20.997h36.362v-36.367c0,0-27.266,0-36.362,0     c-38.325,0-37.644,36.367-37.644,36.367v20.997h-27.868v38.283h27.868v90.019h37.644v-90.019h36.795V233.024z" opacity="0.9194"/><path d="M324.203,233.731h-36.795v-20.997h36.362v-36.367c0,0-27.267,0-36.362,0     c-38.325,0-37.645,36.367-37.645,36.367v20.997h-27.868v38.283h27.868v90.02h37.645v-90.02h36.795V233.731z" opacity="0.9164"/><path d="M324.909,234.438h-36.795V213.44h36.362v-36.367c0,0-27.267,0-36.362,0     c-38.325,0-37.645,36.367-37.645,36.367v20.997h-27.868v38.283h27.868v90.02h37.645v-90.02h36.795V234.438z" opacity="0.9134"/><path d="M325.615,235.144H288.82v-20.997h36.362v-36.368c0,0-27.267,0-36.362,0     c-38.325,0-37.645,36.368-37.645,36.368v20.997h-27.868v38.282h27.868v90.02h37.645v-90.02h36.795V235.144z" opacity="0.9104"/><path d="M326.321,235.85h-36.794v-20.996h36.361v-36.368c0,0-27.267,0-36.361,0     c-38.326,0-37.645,36.368-37.645,36.368v20.996h-27.869v38.283h27.869v90.02h37.645v-90.02h36.794V235.85z" opacity="0.9075"/><path d="M327.028,236.556h-36.795V215.56h36.361v-36.367c0,0-27.266,0-36.361,0     c-38.325,0-37.645,36.367-37.645,36.367v20.997h-27.868v38.282h27.868v90.021h37.645v-90.021h36.795V236.556z" opacity="0.9045"/><path d="M327.734,237.263h-36.795v-20.997h36.362v-36.367c0,0-27.267,0-36.362,0     c-38.324,0-37.645,36.367-37.645,36.367v20.997h-27.868v38.282h27.868v90.02h37.645v-90.02h36.795V237.263z" opacity="0.9015"/><path d="M328.441,237.969h-36.795v-20.997h36.362v-36.367c0,0-27.268,0-36.362,0     c-38.326,0-37.645,36.367-37.645,36.367v20.997h-27.868v38.283h27.868v90.02h37.645v-90.02h36.795V237.969z" opacity="0.8985"/><path d="M329.146,238.675h-36.795v-20.997h36.362v-36.367c0,0-27.267,0-36.362,0     c-38.324,0-37.645,36.367-37.645,36.367v20.997H226.84v38.282h27.867v90.02h37.645v-90.02h36.795V238.675z" opacity="0.8955"/><path d="M329.853,239.381h-36.794v-20.997h36.362v-36.367c0,0-27.267,0-36.362,0     c-38.325,0-37.645,36.367-37.645,36.367v20.997h-27.868v38.283h27.868v90.02h37.645v-90.02h36.794V239.381z" opacity="0.8925"/><path d="M330.56,240.088h-36.795v-20.997h36.362v-36.367c0,0-27.267,0-36.362,0     c-38.325,0-37.645,36.367-37.645,36.367v20.997h-27.868v38.283h27.868v90.02h37.645v-90.02h36.795V240.088z" opacity="0.8895"/><path d="M331.266,240.794h-36.795v-20.997h36.362V183.43c0,0-27.267,0-36.362,0     c-38.325,0-37.645,36.367-37.645,36.367v20.997h-27.868v38.282h27.868v90.02h37.645v-90.02h36.795V240.794z" opacity="0.8866"/><path d="M331.972,241.5h-36.795v-20.996h36.362v-36.367c0,0-27.267,0-36.362,0     c-38.325,0-37.644,36.367-37.644,36.367V241.5h-27.869v38.283h27.869v90.02h37.644v-90.02h36.795V241.5z" opacity="0.8836"/><path d="M332.679,242.207h-36.795V221.21h36.362v-36.367c0,0-27.267,0-36.362,0     c-38.325,0-37.646,36.367-37.646,36.367v20.997h-27.867v38.282h27.867v90.021h37.646v-90.021h36.795V242.207z" opacity="0.8806"/><path d="M333.385,242.913H296.59v-20.997h36.362v-36.367c0,0-27.267,0-36.362,0     c-38.325,0-37.645,36.367-37.645,36.367v20.997h-27.868v38.282h27.868v90.02h37.645v-90.02h36.795V242.913z" opacity="0.8776"/><path d="M334.091,243.619h-36.795v-20.996h36.363v-36.368c0,0-27.267,0-36.363,0     c-38.325,0-37.644,36.368-37.644,36.368v20.996h-27.868v38.283h27.868v90.02h37.644v-90.02h36.795V243.619z" opacity="0.8746"/><path d="M334.797,244.325h-36.794v-20.996h36.361v-36.368c0,0-27.267,0-36.361,0     c-38.325,0-37.646,36.368-37.646,36.368v20.996H232.49v38.282h27.867v90.02h37.646v-90.02h36.794V244.325z" opacity="0.8716"/><path d="M335.503,245.031h-36.794v-20.996h36.362v-36.368c0,0-27.267,0-36.362,0     c-38.326,0-37.645,36.368-37.645,36.368v20.996h-27.868v38.283h27.868v90.02h37.645v-90.02h36.794V245.031z" opacity="0.8687"/><path d="M336.21,245.738h-36.795v-20.997h36.362v-36.368c0,0-27.267,0-36.362,0     c-38.325,0-37.645,36.368-37.645,36.368v20.997h-27.867v38.283h27.867v90.02h37.645v-90.02h36.795V245.738z" opacity="0.8657"/><path d="M336.916,246.444h-36.795v-20.997h36.362V189.08c0,0-27.267,0-36.362,0     c-38.325,0-37.645,36.368-37.645,36.368v20.997h-27.868v38.282h27.868v90.02h37.645v-90.02h36.795V246.444z" opacity="0.8627"/><path d="M337.622,247.15h-36.795v-20.997h36.362v-36.367c0,0-27.267,0-36.362,0     c-38.325,0-37.644,36.367-37.644,36.367v20.997h-27.868v38.283h27.868v90.02h37.644v-90.02h36.795V247.15z" opacity="0.8597"/><path d="M338.329,247.856h-36.795V226.86h36.362v-36.367c0,0-27.267,0-36.362,0     c-38.325,0-37.646,36.367-37.646,36.367v20.996h-27.867v38.282h27.867v90.021h37.646v-90.021h36.795V247.856z" opacity="0.8567"/><path d="M339.035,248.563H302.24v-20.996h36.362V191.2c0,0-27.267,0-36.362,0     c-38.325,0-37.645,36.368-37.645,36.368v20.996h-27.867v38.282h27.867v90.02h37.645v-90.02h36.795V248.563z" opacity="0.8537"/><path d="M339.741,249.27h-36.795v-20.996h36.363v-36.367c0,0-27.268,0-36.363,0     c-38.325,0-37.644,36.367-37.644,36.367v20.996h-27.868v38.283h27.868v90.02h37.644v-90.02h36.795V249.27z" opacity="0.8507"/><path d="M340.447,249.976h-36.794v-20.996h36.362v-36.367c0,0-27.267,0-36.362,0     c-38.326,0-37.646,36.367-37.646,36.367v20.996h-27.867v38.282h27.867v90.02h37.646v-90.02h36.794V249.976z" opacity="0.8478"/><path d="M341.154,250.682h-36.795v-20.996h36.362v-36.368c0,0-27.267,0-36.362,0     c-38.325,0-37.645,36.368-37.645,36.368v20.996h-27.868v38.283h27.868v90.02h37.645v-90.02h36.795V250.682z" opacity="0.8448"/><path d="M341.86,251.389h-36.795v-20.997h36.363v-36.367c0,0-27.268,0-36.363,0     c-38.325,0-37.645,36.367-37.645,36.367v20.997h-27.867v38.281h27.867v90.021h37.645V289.67h36.795V251.389z" opacity="0.8418"/><path d="M342.566,252.095h-36.795v-20.997h36.362v-36.367c0,0-27.267,0-36.362,0     c-38.325,0-37.645,36.367-37.645,36.367v20.997h-27.868v38.282h27.868v90.02h37.645v-90.02h36.795V252.095z" opacity="0.8388"/><path d="M343.272,252.801h-36.795v-20.997h36.363v-36.367c0,0-27.268,0-36.363,0     c-38.325,0-37.645,36.367-37.645,36.367v20.997h-27.867v38.283h27.867v90.02h37.645v-90.02h36.795V252.801z" opacity="0.8358"/><path d="M343.979,253.507h-36.795v-20.996h36.362v-36.367c0,0-27.267,0-36.362,0     c-38.325,0-37.645,36.367-37.645,36.367v20.996h-27.868v38.282h27.868v90.021h37.645v-90.021h36.795V253.507z" opacity="0.8328"/><path d="M344.686,254.214h-36.795v-20.996h36.362V196.85c0,0-27.267,0-36.362,0     c-38.325,0-37.645,36.368-37.645,36.368v20.996h-27.867v38.282h27.867v90.02h37.645v-90.02h36.795V254.214z" opacity="0.8298"/><path d="M345.392,254.92h-36.794v-20.996h36.362v-36.367c0,0-27.267,0-36.362,0     c-38.326,0-37.646,36.367-37.646,36.367v20.996h-27.867v38.283h27.867v90.02h37.646v-90.02h36.794V254.92z" opacity="0.8269"/><path d="M346.098,255.626h-36.795V234.63h36.363v-36.367c0,0-27.268,0-36.363,0     c-38.325,0-37.644,36.367-37.644,36.367v20.996h-27.868v38.282h27.868v90.02h37.644v-90.02h36.795V255.626z" opacity="0.8239"/><path d="M346.805,256.332H310.01v-20.996h36.362v-36.367c0,0-27.267,0-36.362,0     c-38.325,0-37.645,36.367-37.645,36.367v20.996h-27.867v38.283h27.867v90.02h37.645v-90.02h36.795V256.332z" opacity="0.8209"/><path d="M347.511,257.039h-36.795v-20.997h36.363v-36.368c0,0-27.268,0-36.363,0     c-38.325,0-37.645,36.368-37.645,36.368v20.997h-27.867v38.281h27.867v90.021h37.645V295.32h36.795V257.039z" opacity="0.8179"/><path d="M348.217,257.744h-36.795v-20.996h36.362v-36.368c0,0-27.267,0-36.362,0     c-38.325,0-37.645,36.368-37.645,36.368v20.996H245.91v38.283h27.868v90.02h37.645v-90.02h36.795V257.744z" opacity="0.8149"/><path d="M348.923,258.451h-36.795v-20.996h36.363v-36.368c0,0-27.267,0-36.363,0     c-38.325,0-37.645,36.368-37.645,36.368v20.996h-27.867v38.283h27.867v90.02h37.645v-90.02h36.795V258.451z" opacity="0.8119"/><path d="M349.63,259.157h-36.795v-20.996h36.362v-36.368c0,0-27.267,0-36.362,0     c-38.325,0-37.645,36.368-37.645,36.368v20.996h-27.868v38.282h27.868v90.021h37.645v-90.021h36.795V259.157z" opacity="0.809"/><path d="M350.336,259.864h-36.795v-20.996h36.362V202.5c0,0-27.267,0-36.362,0     c-38.325,0-37.645,36.368-37.645,36.368v20.996h-27.867v38.282h27.867v90.02h37.645v-90.02h36.795V259.864z" opacity="0.806"/><path d="M351.042,260.57h-36.795v-20.996h36.363v-36.367c0,0-27.268,0-36.363,0     c-38.324,0-37.645,36.367-37.645,36.367v20.996h-27.867v38.283h27.867v90.02h37.645v-90.02h36.795V260.57z" opacity="0.803"/><path d="M351.748,261.276h-36.795V240.28h36.363v-36.367c0,0-27.267,0-36.363,0     c-38.325,0-37.645,36.367-37.645,36.367v20.996h-27.867v38.282h27.867v90.02h37.645v-90.02h36.795V261.276z" opacity="0.8"/><path d="M352.454,261.982H315.66v-20.996h36.362v-36.367c0,0-27.267,0-36.362,0     c-38.325,0-37.646,36.367-37.646,36.367v20.996h-27.866v38.283h27.866v90.02h37.646v-90.02h36.794V261.982z" opacity="0.797"/><path d="M353.161,262.689h-36.795v-20.996h36.363v-36.368c0,0-27.268,0-36.363,0     c-38.325,0-37.645,36.368-37.645,36.368v20.996h-27.867v38.281h27.867v90.021h37.645v-90.021h36.795V262.689z" opacity="0.794"/><path d="M353.867,263.395h-36.795v-20.995h36.363v-36.368c0,0-27.268,0-36.363,0     c-38.325,0-37.645,36.368-37.645,36.368v20.995h-27.867v38.283h27.867v90.02h37.645v-90.02h36.795V263.395z" opacity="0.791"/><path d="M354.573,264.102h-36.795v-20.996h36.363v-36.367c0,0-27.268,0-36.363,0     c-38.324,0-37.645,36.367-37.645,36.367v20.996h-27.866v38.281h27.866v90.021h37.645v-90.021h36.795V264.102z" opacity="0.7881"/><path d="M355.279,264.808h-36.794v-20.996h36.362v-36.368c0,0-27.267,0-36.362,0     c-38.325,0-37.645,36.368-37.645,36.368v20.996h-27.867v38.282h27.867v90.021h37.645V303.09h36.794V264.808z" opacity="0.7851"/><path d="M355.986,265.515h-36.795v-20.997h36.363v-36.367c0,0-27.268,0-36.363,0     c-38.325,0-37.645,36.367-37.645,36.367v20.997H253.68v38.282h27.867v90.02h37.645v-90.02h36.795V265.515z" opacity="0.7821"/><path d="M356.692,266.221h-36.795v-20.996h36.363v-36.367c0,0-27.268,0-36.363,0     c-38.324,0-37.644,36.367-37.644,36.367v20.996h-27.867v38.283h27.867v90.02h37.644v-90.02h36.795V266.221z" opacity="0.7791"/><path d="M357.398,266.927h-36.794v-20.996h36.362v-36.367c0,0-27.268,0-36.362,0     c-38.326,0-37.646,36.367-37.646,36.367v20.996h-27.867v38.282h27.867v90.02h37.646v-90.02h36.794V266.927z" opacity="0.7761"/><path d="M358.104,267.633h-36.794v-20.996h36.363V210.27c0,0-27.268,0-36.363,0     c-38.325,0-37.645,36.367-37.645,36.367v20.996h-27.867v38.283h27.867v90.02h37.645v-90.02h36.794V267.633z" opacity="0.7731"/><path d="M358.812,268.34h-36.795v-20.996h36.363v-36.368c0,0-27.268,0-36.363,0     c-38.325,0-37.645,36.368-37.645,36.368v20.996h-27.867v38.281h27.867v90.021h37.645v-90.021h36.795V268.34z" opacity="0.7701"/><path d="M359.518,269.045h-36.795V248.05h36.363v-36.368c0,0-27.268,0-36.363,0     c-38.325,0-37.645,36.368-37.645,36.368v20.995h-27.867v38.283h27.867v90.02h37.645v-90.02h36.795V269.045z" opacity="0.7672"/><path d="M360.224,269.752h-36.795v-20.996h36.363v-36.368c0,0-27.268,0-36.363,0     c-38.325,0-37.645,36.368-37.645,36.368v20.996h-27.866v38.283h27.866v90.02h37.645v-90.02h36.795V269.752z" opacity="0.7642"/><path d="M360.931,270.458h-36.795v-20.996h36.363v-36.368c0,0-27.268,0-36.363,0     c-38.325,0-37.645,36.368-37.645,36.368v20.996h-27.867v38.282h27.867v90.021h37.645V308.74h36.795V270.458z" opacity="0.7612"/><path d="M361.637,271.165h-36.795v-20.997h36.363v-36.367c0,0-27.268,0-36.363,0     c-38.325,0-37.645,36.367-37.645,36.367v20.997H259.33v38.282h27.867v90.02h37.645v-90.02h36.795V271.165z" opacity="0.7582"/><path d="M362.343,271.871h-36.794v-20.996h36.362v-36.367c0,0-27.268,0-36.362,0     c-38.326,0-37.646,36.367-37.646,36.367v20.996h-27.866v38.283h27.866v90.02h37.646v-90.02h36.794V271.871z" opacity="0.7552"/><path d="M363.049,272.577h-36.795v-20.996h36.363v-36.367c0,0-27.267,0-36.363,0     c-38.325,0-37.644,36.367-37.644,36.367v20.996h-27.867v38.282h27.867v90.02h37.644v-90.02h36.795V272.577z" opacity="0.7522"/><path d="M363.755,273.283H326.96v-20.996h36.364V215.92c0,0-27.269,0-36.364,0     c-38.324,0-37.645,36.367-37.645,36.367v20.996h-27.866v38.283h27.866v90.02h37.645v-90.02h36.795V273.283z" opacity="0.7493"/><path d="M364.462,273.99h-36.795v-20.996h36.363v-36.368c0,0-27.268,0-36.363,0     c-38.325,0-37.645,36.368-37.645,36.368v20.996h-27.866v38.281h27.866v90.021h37.645v-90.021h36.795V273.99z" opacity="0.7463"/><path d="M365.168,274.695h-36.795V253.7h36.363v-36.367c0,0-27.268,0-36.363,0     c-38.325,0-37.645,36.367-37.645,36.367v20.995h-27.866v38.283h27.866v90.02h37.645v-90.02h36.795V274.695z" opacity="0.7433"/><path d="M365.874,275.402H329.08v-20.996h36.362v-36.367c0,0-27.268,0-36.362,0     c-38.325,0-37.646,36.367-37.646,36.367v20.996h-27.866v38.283h27.866v90.02h37.646v-90.02h36.794V275.402z" opacity="0.7403"/><path d="M366.581,276.107h-36.795v-20.994h36.363v-36.368c0,0-27.268,0-36.363,0     c-38.325,0-37.645,36.368-37.645,36.368v20.994h-27.867v38.283h27.867v90.021h37.645v-90.021h36.795V276.107z" opacity="0.7373"/><path d="M367.286,276.814h-36.794v-20.996h36.363v-36.367c0,0-27.268,0-36.363,0     c-38.325,0-37.645,36.367-37.645,36.367v20.996H264.98v38.283h27.867v90.02h37.645v-90.02h36.794V276.814z" opacity="0.7343"/><path d="M367.993,277.521h-36.795v-20.996h36.363v-36.367c0,0-27.268,0-36.363,0     c-38.325,0-37.645,36.367-37.645,36.367v20.996h-27.866v38.281h27.866v90.021h37.645v-90.021h36.795V277.521z" opacity="0.7313"/><path d="M368.699,278.227h-36.795v-20.994h36.364v-36.368c0,0-27.268,0-36.364,0     c-38.325,0-37.644,36.368-37.644,36.368v20.994h-27.867v38.283h27.867v90.02h37.644v-90.02h36.795V278.227z" opacity="0.7284"/><path d="M369.405,278.934h-36.794v-20.996h36.362v-36.367c0,0-27.267,0-36.362,0     c-38.325,0-37.645,36.367-37.645,36.367v20.996H267.1v38.283h27.867v90.02h37.645v-90.02h36.794V278.934z" opacity="0.7254"/><path d="M370.112,279.641h-36.795v-20.996h36.363v-36.367c0,0-27.268,0-36.363,0     c-38.325,0-37.645,36.367-37.645,36.367v20.996h-27.867v38.281h27.867v90.021h37.645v-90.021h36.795V279.641z" opacity="0.7224"/><path d="M370.818,280.346h-36.795v-20.995h36.364v-36.368c0,0-27.269,0-36.364,0     c-38.325,0-37.645,36.368-37.645,36.368v20.995h-27.866v38.283h27.866v90.02h37.645v-90.02h36.795V280.346z" opacity="0.7194"/><path d="M371.524,281.053h-36.795v-20.996h36.364v-36.367c0,0-27.269,0-36.364,0     c-38.325,0-37.645,36.367-37.645,36.367v20.996h-27.866v38.281h27.866v90.021h37.645v-90.021h36.795V281.053z" opacity="0.7164"/><path d="M372.23,281.758h-36.794v-20.994H371.8v-36.368c0,0-27.268,0-36.363,0     c-38.326,0-37.645,36.368-37.645,36.368v20.994h-27.867v38.283h27.867v90.02h37.645v-90.02h36.794V281.758z" opacity="0.7134"/><path d="M372.937,282.465h-36.794V261.47h36.363v-36.368c0,0-27.268,0-36.363,0     c-38.325,0-37.645,36.368-37.645,36.368v20.995h-27.866v38.283h27.866v90.02h37.645v-90.02h36.794V282.465z" opacity="0.7104"/><path d="M373.644,283.172h-36.795v-20.996h36.363v-36.368c0,0-27.268,0-36.363,0     c-38.325,0-37.645,36.368-37.645,36.368v20.996h-27.866v38.281h27.866v90.021h37.645v-90.021h36.795V283.172z" opacity="0.7075"/><path d="M374.35,283.877h-36.795v-20.995h36.364v-36.367c0,0-27.269,0-36.364,0     c-38.325,0-37.645,36.367-37.645,36.367v20.995h-27.866v38.283h27.866v90.02h37.645v-90.02h36.795V283.877z" opacity="0.7045"/><path d="M375.056,284.584h-36.794v-20.996h36.363v-36.367c0,0-27.269,0-36.363,0     c-38.325,0-37.645,36.367-37.645,36.367v20.996H272.75v38.283h27.867v90.02h37.645v-90.02h36.794V284.584z" opacity="0.7015"/><path d="M375.763,285.289h-36.795v-20.994h36.363v-36.368c0,0-27.268,0-36.363,0     c-38.325,0-37.645,36.368-37.645,36.368v20.994h-27.867v38.283h27.867v90.02h37.645v-90.02h36.795V285.289z" opacity="0.6985"/><path d="M376.469,285.996h-36.795v-20.995h36.364v-36.367c0,0-27.269,0-36.364,0     c-38.325,0-37.645,36.367-37.645,36.367v20.995h-27.866v38.283h27.866v90.02h37.645v-90.02h36.795V285.996z" opacity="0.6955"/><path d="M377.175,286.703H340.38v-20.996h36.364V229.34c0,0-27.269,0-36.364,0     c-38.325,0-37.645,36.367-37.645,36.367v20.996h-27.866v38.283h27.866v90.02h37.645v-90.02h36.795V286.703z" opacity="0.6925"/><path d="M377.881,287.408h-36.794v-20.995h36.363v-36.367c0,0-27.269,0-36.363,0     c-38.325,0-37.645,36.367-37.645,36.367v20.995h-27.867v38.283h27.867v90.02h37.645v-90.02h36.794V287.408z" opacity="0.6895"/><path d="M378.588,288.115h-36.795V267.12h36.363v-36.368c0,0-27.268,0-36.363,0     c-38.325,0-37.645,36.368-37.645,36.368v20.995h-27.866v38.283h27.866v90.02h37.645v-90.02h36.795V288.115z" opacity="0.6866"/><path d="M379.294,288.822h-36.795v-20.996h36.363v-36.367c0,0-27.268,0-36.363,0     c-38.325,0-37.645,36.367-37.645,36.367v20.996h-27.866v38.281h27.866v90.021h37.645v-90.021h36.795V288.822z" opacity="0.6836"/><path d="M380,289.527h-36.794v-20.995h36.363v-36.367c0,0-27.268,0-36.363,0     c-38.326,0-37.645,36.367-37.645,36.367v20.995h-27.867v38.283h27.867v90.02h37.645v-90.02H380V289.527z" opacity="0.6806"/><path d="M380.706,290.234h-36.795v-20.996h36.364v-36.367c0,0-27.268,0-36.364,0     c-38.324,0-37.645,36.367-37.645,36.367v20.996h-27.865v38.283h27.865v90.02h37.645v-90.02h36.795V290.234z" opacity="0.6776"/><path d="M381.413,290.939h-36.795v-20.994h36.363v-36.367c0,0-27.268,0-36.363,0     c-38.326,0-37.645,36.367-37.645,36.367v20.994h-27.866v38.283h27.866v90.021h37.645v-90.021h36.795V290.939z" opacity="0.6746"/><path d="M382.119,291.646h-36.795v-20.995h36.364v-36.367c0,0-27.269,0-36.364,0     c-38.325,0-37.645,36.367-37.645,36.367v20.995h-27.866v38.283h27.866v90.02h37.645v-90.02h36.795V291.646z" opacity="0.6716"/><path d="M382.825,292.354H346.03v-20.996h36.364V234.99c0,0-27.269,0-36.364,0     c-38.324,0-37.645,36.367-37.645,36.367v20.996H280.52v38.283h27.866v90.02h37.645v-90.02h36.795V292.354z" opacity="0.6687"/><path d="M383.531,293.059h-36.794v-20.995h36.363v-36.367c0,0-27.268,0-36.363,0     c-38.326,0-37.646,36.367-37.646,36.367v20.995h-27.866v38.283h27.866v90.02h37.646v-90.02h36.794V293.059z" opacity="0.6657"/><path d="M384.237,293.766h-36.794v-20.995h36.364v-36.368c0,0-27.269,0-36.364,0     c-38.325,0-37.645,36.368-37.645,36.368v20.995h-27.866v38.283h27.866v90.02h37.645v-90.02h36.794V293.766z" opacity="0.6627"/><path d="M384.944,294.471h-36.795v-20.994h36.364v-36.368c0,0-27.269,0-36.364,0     c-38.325,0-37.645,36.368-37.645,36.368v20.994h-27.866v38.283h27.866v90.021h37.645v-90.021h36.795V294.471z" opacity="0.6597"/><path d="M385.65,295.178h-36.795v-20.996h36.364v-36.366c0,0-27.269,0-36.364,0     c-38.325,0-37.645,36.366-37.645,36.366v20.996h-27.866v38.283h27.866v90.02h37.645v-90.02h36.795V295.178z" opacity="0.6567"/><path d="M386.356,295.885h-36.795v-20.996h36.364v-36.367c0,0-27.269,0-36.364,0     c-38.325,0-37.644,36.367-37.644,36.367v20.996h-27.866v38.283h27.866v90.02h37.644v-90.02h36.795V295.885z" opacity="0.6537"/><path d="M387.063,296.59h-36.794v-20.994h36.363v-36.368c0,0-27.268,0-36.363,0     c-38.325,0-37.645,36.368-37.645,36.368v20.994h-27.866v38.283h27.866v90.021h37.645v-90.021h36.794V296.59z" opacity="0.6507"/><path d="M387.77,297.297h-36.795v-20.996h36.364v-36.366c0,0-27.269,0-36.364,0     c-38.325,0-37.645,36.366-37.645,36.366v20.996h-27.866v38.283h27.866v90.02h37.645v-90.02h36.795V297.297z" opacity="0.6478"/><path d="M388.476,298.004h-36.795v-20.996h36.364v-36.367c0,0-27.269,0-36.364,0     c-38.325,0-37.645,36.367-37.645,36.367v20.996h-27.865v38.281h27.865v90.021h37.645v-90.021h36.795V298.004z" opacity="0.6448"/><path d="M389.182,298.709h-36.794v-20.994h36.363v-36.368c0,0-27.269,0-36.363,0     c-38.326,0-37.645,36.368-37.645,36.368v20.994h-27.866v38.283h27.866v90.02h37.645v-90.02h36.794V298.709z" opacity="0.6418"/><path d="M389.888,299.416h-36.795V278.42h36.365v-36.367c0,0-27.269,0-36.365,0     c-38.324,0-37.645,36.367-37.645,36.367v20.996h-27.865v38.283h27.865v90.02h37.645v-90.02h36.795V299.416z" opacity="0.6388"/><path d="M390.595,300.121H353.8v-20.994h36.364V242.76c0,0-27.269,0-36.364,0     c-38.325,0-37.645,36.367-37.645,36.367v20.994H288.29v38.283h27.865v90.021H353.8v-90.021h36.795V300.121z" opacity="0.6358"/><path d="M391.301,300.828h-36.795v-20.996h36.364v-36.366c0,0-27.269,0-36.364,0     c-38.325,0-37.645,36.366-37.645,36.366v20.996h-27.866v38.283h27.866v90.02h37.645v-90.02h36.795V300.828z" opacity="0.6328"/><path d="M392.007,301.535h-36.795v-20.996h36.364v-36.367c0,0-27.268,0-36.364,0     c-38.324,0-37.645,36.367-37.645,36.367v20.996h-27.865v38.281h27.865v90.021h37.645v-90.021h36.795V301.535z" opacity="0.6298"/><path d="M392.713,302.24h-36.794v-20.994h36.363v-36.367c0,0-27.268,0-36.363,0     c-38.325,0-37.645,36.367-37.645,36.367v20.994h-27.866v38.283h27.866v90.021h37.645v-90.021h36.794V302.24z" opacity="0.6269"/><path d="M393.419,302.947h-36.794v-20.996h36.364v-36.366c0,0-27.269,0-36.364,0     c-38.325,0-37.645,36.366-37.645,36.366v20.996h-27.866v38.283h27.866v90.02h37.645v-90.02h36.794V302.947z" opacity="0.6239"/><path d="M394.126,303.652h-36.795v-20.994h36.365v-36.367c0,0-27.27,0-36.365,0     c-38.325,0-37.645,36.367-37.645,36.367v20.994h-27.865v38.283h27.865v90.021h37.645v-90.021h36.795V303.652z" opacity="0.6209"/><path d="M394.832,304.359h-36.795v-20.994h36.365v-36.368c0,0-27.269,0-36.365,0     c-38.325,0-37.645,36.368-37.645,36.368v20.994h-27.865v38.283h27.865v90.02h37.645v-90.02h36.795V304.359z" opacity="0.6179"/><path d="M395.538,305.066h-36.794V284.07h36.364v-36.367c0,0-27.269,0-36.364,0     c-38.325,0-37.645,36.367-37.645,36.367v20.996h-27.866v38.281H321.1v90.021h37.645v-90.021h36.794V305.066z" opacity="0.6149"/><path d="M396.245,305.771H359.45v-20.994h36.364V248.41c0,0-27.269,0-36.364,0     c-38.325,0-37.645,36.368-37.645,36.368v20.994H293.94v38.283h27.865v90.021h37.645v-90.021h36.795V305.771z" opacity="0.6119"/><path d="M396.951,306.479h-36.794v-20.996h36.363v-36.366c0,0-27.269,0-36.363,0     c-38.326,0-37.646,36.366-37.646,36.366v20.996h-27.865v38.283h27.865v90.02h37.646v-90.02h36.794V306.479z" opacity="0.609"/><path d="M397.657,307.186h-36.795v-20.996h36.365v-36.367c0,0-27.27,0-36.365,0     c-38.324,0-37.645,36.367-37.645,36.367v20.996h-27.865v38.281h27.865v90.021h37.645v-90.021h36.795V307.186z" opacity="0.606"/><path d="M398.364,307.891h-36.795v-20.994h36.364v-36.368c0,0-27.269,0-36.364,0     c-38.326,0-37.645,36.368-37.645,36.368v20.994h-27.866v38.283h27.866v90.021h37.645v-90.021h36.795V307.891z" opacity="0.603"/><path d="M399.069,308.598h-36.794v-20.996h36.364v-36.366c0,0-27.269,0-36.364,0     c-38.325,0-37.645,36.366-37.645,36.366v20.996h-27.866v38.283h27.866v90.02h37.645v-90.02h36.794V308.598z" opacity="0.6"/><path d="M399.776,309.303h-36.795v-20.994h36.365v-36.367c0,0-27.27,0-36.365,0     c-38.325,0-37.645,36.367-37.645,36.367v20.994h-27.865v38.283h27.865v90.021h37.645v-90.021h36.795V309.303z" opacity="0.597"/><path d="M400.482,310.01h-36.794v-20.994h36.364v-36.368c0,0-27.27,0-36.364,0     c-38.326,0-37.645,36.368-37.645,36.368v20.994h-27.866v38.283h27.866v90.02h37.645v-90.02h36.794V310.01z" opacity="0.594"/><path d="M401.188,310.717h-36.795v-20.996h36.365v-36.367c0,0-27.269,0-36.365,0     c-38.324,0-37.645,36.367-37.645,36.367v20.996h-27.865V349h27.865v90.02h37.645V349h36.795V310.717z" opacity="0.591"/><path d="M401.896,311.422h-36.795v-20.994h36.364v-36.367c0,0-27.269,0-36.364,0     c-38.325,0-37.645,36.367-37.645,36.367v20.994H299.59v38.283h27.866v90.021h37.645v-90.021h36.795V311.422z" opacity="0.5881"/><path d="M402.602,312.129h-36.795v-20.994h36.364v-36.368c0,0-27.269,0-36.364,0     c-38.325,0-37.645,36.368-37.645,36.368v20.994h-27.865v38.283h27.865v90.02h37.645v-90.02h36.795V312.129z" opacity="0.5851"/><path d="M403.308,312.834h-36.795V291.84h36.365v-36.367c0,0-27.27,0-36.365,0     c-38.325,0-37.645,36.367-37.645,36.367v20.994h-27.865v38.283h27.865v90.021h37.645v-90.021h36.795V312.834z" opacity="0.5821"/><path d="M404.014,313.541H367.22v-20.994h36.364V256.18c0,0-27.269,0-36.364,0     c-38.325,0-37.645,36.367-37.645,36.367v20.994h-27.866v38.283h27.866v90.02h37.645v-90.02h36.794V313.541z" opacity="0.5791"/><path d="M404.72,314.248h-36.794v-20.996h36.364v-36.366c0,0-27.269,0-36.364,0     c-38.325,0-37.645,36.366-37.645,36.366v20.996h-27.866v38.283h27.866v90.02h37.645v-90.02h36.794V314.248z" opacity="0.5761"/><path d="M405.427,314.953h-36.795v-20.994h36.364v-36.367c0,0-27.269,0-36.364,0     c-38.325,0-37.645,36.367-37.645,36.367v20.994h-27.865v38.283h27.865v90.021h37.645v-90.021h36.795V314.953z" opacity="0.5731"/><path d="M406.133,315.66h-36.794v-20.994h36.364v-36.368c0,0-27.269,0-36.364,0     c-38.326,0-37.645,36.368-37.645,36.368v20.994h-27.866v38.283h27.866v90.02h37.645v-90.02h36.794V315.66z" opacity="0.5701"/><path d="M406.839,316.367h-36.795v-20.996h36.365v-36.367c0,0-27.27,0-36.365,0     c-38.324,0-37.645,36.367-37.645,36.367v20.996h-27.865v38.283h27.865v90.02h37.645v-90.02h36.795V316.367z" opacity="0.5672"/><path d="M407.546,317.072h-36.795v-20.994h36.365v-36.367c0,0-27.27,0-36.365,0     c-38.325,0-37.645,36.367-37.645,36.367v20.994h-27.865v38.283h27.865v90.02h37.645v-90.02h36.795V317.072z" opacity="0.5642"/><path d="M408.251,317.779h-36.794v-20.994h36.365v-36.368c0,0-27.27,0-36.365,0     c-38.325,0-37.645,36.368-37.645,36.368v20.994h-27.865v38.283h27.865v90.02h37.645v-90.02h36.794V317.779z" opacity="0.5612"/><path d="M408.958,318.484h-36.795V297.49h36.365v-36.367c0,0-27.27,0-36.365,0     c-38.325,0-37.645,36.367-37.645,36.367v20.994h-27.865v38.283h27.865v90.021h37.645v-90.021h36.795V318.484z" opacity="0.5582"/><path d="M409.664,319.191H372.87v-20.994h36.364v-36.368c0,0-27.269,0-36.364,0     c-38.325,0-37.645,36.368-37.645,36.368v20.994h-27.866v38.283h27.866v90.02h37.645v-90.02h36.794V319.191z" opacity="0.5552"/><path d="M410.37,319.898h-36.794v-20.996h36.364v-36.366c0,0-27.27,0-36.364,0     c-38.325,0-37.645,36.366-37.645,36.366v20.996h-27.866v38.283h27.866v90.02h37.645v-90.02h36.794V319.898z" opacity="0.5522"/><path d="M411.077,320.604h-36.795v-20.994h36.365v-36.367c0,0-27.27,0-36.365,0     c-38.325,0-37.645,36.367-37.645,36.367v20.994h-27.865v38.283h27.865v90.021h37.645v-90.021h36.795V320.604z" opacity="0.5493"/><path d="M411.783,321.311h-36.795v-20.994h36.365v-36.368c0,0-27.27,0-36.365,0     c-38.325,0-37.645,36.368-37.645,36.368v20.994h-27.865v38.283h27.865v90.02h37.645v-90.02h36.795V321.311z" opacity="0.5463"/><path d="M412.489,322.018h-36.794v-20.996h36.364v-36.367c0,0-27.269,0-36.364,0     c-38.326,0-37.645,36.367-37.645,36.367v20.996h-27.866v38.283h27.866v90.02h37.645v-90.02h36.794V322.018z" opacity="0.5433"/><path d="M413.196,322.723h-36.795v-20.994h36.365v-36.367c0,0-27.27,0-36.365,0     c-38.325,0-37.645,36.367-37.645,36.367v20.994h-27.865v38.283h27.865v90.02h37.645v-90.02h36.795V322.723z" opacity="0.5403"/><path d="M413.901,323.43h-36.794v-20.994h36.365v-36.368c0,0-27.27,0-36.365,0     c-38.325,0-37.645,36.368-37.645,36.368v20.994h-27.865v38.283h27.865v90.02h37.645v-90.02h36.794V323.43z" opacity="0.5373"/><path d="M414.608,324.135h-36.795v-20.994h36.365v-36.367c0,0-27.27,0-36.365,0     c-38.324,0-37.645,36.367-37.645,36.367v20.994h-27.865v38.283h27.865v90.021h37.645v-90.021h36.795V324.135z" opacity="0.5343"/><path d="M415.314,324.842h-36.794v-20.994h36.364V267.48c0,0-27.269,0-36.364,0     c-38.326,0-37.645,36.367-37.645,36.367v20.994h-27.865v38.283h27.865v90.02h37.645v-90.02h36.794V324.842z" opacity="0.5313"/><path d="M416.021,325.549h-36.794v-20.994h36.364v-36.368c0,0-27.269,0-36.364,0     c-38.325,0-37.645,36.368-37.645,36.368v20.994h-27.865v38.283h27.865v90.02h37.645v-90.02h36.794V325.549z" opacity="0.5284"/><path d="M416.728,326.254h-36.795V305.26h36.365v-36.367c0,0-27.27,0-36.365,0     c-38.325,0-37.645,36.367-37.645,36.367v20.994h-27.865v38.283h27.865v90.021h37.645v-90.021h36.795V326.254z" opacity="0.5254"/><path d="M417.433,326.961h-36.794v-20.994h36.365V269.6c0,0-27.27,0-36.365,0     c-38.325,0-37.644,36.367-37.644,36.367v20.994h-27.866v38.283h27.866v90.02h37.644v-90.02h36.794V326.961z" opacity="0.5224"/><path d="M418.14,327.668h-36.795v-20.996h36.365v-36.367c0,0-27.27,0-36.365,0     c-38.324,0-37.645,36.367-37.645,36.367v20.996h-27.865v38.281H343.7v90.021h37.645v-90.021h36.795V327.668z" opacity="0.5194"/><path d="M418.846,328.373h-36.794v-20.994h36.365v-36.367c0,0-27.27,0-36.365,0     c-38.325,0-37.645,36.367-37.645,36.367v20.994h-27.865v38.283h27.865v90.02h37.645v-90.02h36.794V328.373z" opacity="0.5164"/><path d="M419.552,329.08h-36.794v-20.994h36.365v-36.368c0,0-27.27,0-36.365,0     c-38.325,0-37.645,36.368-37.645,36.368v20.994h-27.865v38.283h27.865v90.02h37.645v-90.02h36.794V329.08z" opacity="0.5134"/><path d="M420.259,329.785h-36.795v-20.994h36.365v-36.367c0,0-27.27,0-36.365,0     c-38.325,0-37.645,36.367-37.645,36.367v20.994h-27.865v38.283h27.865v90.021h37.645v-90.021h36.795V329.785z" opacity="0.5104"/><path d="M420.965,330.492H384.17v-20.994h36.366V273.13c0,0-27.27,0-36.366,0     c-38.325,0-37.644,36.368-37.644,36.368v20.994h-27.865v38.283h27.865v90.02h37.644v-90.02h36.795V330.492z" opacity="0.5075"/><path d="M421.671,331.199h-36.794v-20.996h36.364v-36.367c0,0-27.27,0-36.364,0     c-38.325,0-37.645,36.367-37.645,36.367v20.996h-27.865v38.283h27.865v90.02h37.645v-90.02h36.794V331.199z" opacity="0.5045"/><path d="M422.378,331.904h-36.795V310.91h36.365v-36.367c0,0-27.27,0-36.365,0     c-38.325,0-37.645,36.367-37.645,36.367v20.994h-27.865v38.283h27.865v90.021h37.645v-90.021h36.795V331.904z" opacity="0.5015"/><path d="M423.083,332.611h-36.794v-20.994h36.365v-36.369c0,0-27.269,0-36.365,0     c-38.325,0-37.645,36.369-37.645,36.369v20.994H320.78v38.283h27.864v90.02h37.645v-90.02h36.794V332.611z" opacity="0.4985"/><path d="M423.79,333.316h-36.795v-20.994h36.365v-36.367c0,0-27.27,0-36.365,0     c-38.325,0-37.645,36.367-37.645,36.367v20.994h-27.864V371.6h27.864v90.021h37.645V371.6h36.795V333.316z" opacity="0.4955"/><path d="M424.496,334.023h-36.794v-20.994h36.365v-36.367c0,0-27.27,0-36.365,0     c-38.325,0-37.645,36.367-37.645,36.367v20.994h-27.865v38.283h27.865v90.02h37.645v-90.02h36.794V334.023z" opacity="0.4925"/><path d="M425.202,334.73h-36.794v-20.996h36.365v-36.367c0,0-27.27,0-36.365,0     c-38.325,0-37.645,36.367-37.645,36.367v20.996h-27.865v38.283h27.865v90.02h37.645v-90.02h36.794V334.73z" opacity="0.4895"/><path d="M425.909,335.436h-36.795v-20.994h36.365v-36.367c0,0-27.27,0-36.365,0     c-38.324,0-37.645,36.367-37.645,36.367v20.994h-27.864v38.283h27.864v90.021h37.645v-90.021h36.795V335.436z" opacity="0.4866"/><path d="M426.615,336.143H389.82v-20.994h36.366v-36.369c0,0-27.27,0-36.366,0     c-38.325,0-37.645,36.369-37.645,36.369v20.994h-27.864v38.283h27.864v90.02h37.645v-90.02h36.795V336.143z" opacity="0.4836"/><path d="M427.321,336.85h-36.795v-20.996h36.366v-36.367c0,0-27.27,0-36.366,0     c-38.324,0-37.645,36.367-37.645,36.367v20.996h-27.864v38.283h27.864v90.02h37.645v-90.02h36.795V336.85z" opacity="0.4806"/><path d="M428.027,337.555h-36.794v-20.994h36.365v-36.367c0,0-27.27,0-36.365,0     c-38.325,0-37.645,36.367-37.645,36.367v20.994h-27.865v38.283h27.865v90.021h37.645v-90.021h36.794V337.555z" opacity="0.4776"/><path d="M428.733,338.262h-36.794v-20.994h36.365v-36.369c0,0-27.27,0-36.365,0     c-38.325,0-37.645,36.369-37.645,36.369v20.994h-27.864v38.283h27.864v90.02h37.645v-90.02h36.794V338.262z" opacity="0.4746"/><path d="M429.44,338.967h-36.795v-20.994h36.366v-36.367c0,0-27.271,0-36.366,0     c-38.325,0-37.645,36.367-37.645,36.367v20.994h-27.864v38.283h27.864v90.021h37.645V377.25h36.795V338.967z" opacity="0.4716"/><path d="M430.146,339.674h-36.794V318.68h36.365v-36.367c0,0-27.27,0-36.365,0     c-38.326,0-37.645,36.367-37.645,36.367v20.994h-27.865v38.283h27.865v90.02h37.645v-90.02h36.794V339.674z" opacity="0.4687"/><path d="M430.853,340.381h-36.794v-20.994h36.365v-36.369c0,0-27.27,0-36.365,0     c-38.325,0-37.645,36.369-37.645,36.369v20.994H328.55v38.283h27.864v90.02h37.645v-90.02h36.794V340.381z" opacity="0.4657"/><path d="M431.56,341.086h-36.795v-20.994h36.365v-36.367c0,0-27.27,0-36.365,0     c-38.325,0-37.645,36.367-37.645,36.367v20.994h-27.864v38.283h27.864v90.021h37.645v-90.021h36.795V341.086z" opacity="0.4627"/><path d="M432.266,341.793h-36.794v-20.994h36.365v-36.367c0,0-27.271,0-36.365,0     c-38.326,0-37.645,36.367-37.645,36.367v20.994h-27.865v38.283h27.865v90.02h37.645v-90.02h36.794V341.793z" opacity="0.4597"/><path d="M432.972,342.5h-36.794v-20.996h36.365v-36.367c0,0-27.271,0-36.365,0     c-38.325,0-37.645,36.367-37.645,36.367V342.5h-27.865v38.281h27.865v90.021h37.645v-90.021h36.794V342.5z" opacity="0.4567"/><path d="M433.679,343.205h-36.795v-20.994h36.365v-36.367c0,0-27.27,0-36.365,0     c-38.325,0-37.645,36.367-37.645,36.367v20.994h-27.865v38.283h27.865v90.021h37.645v-90.021h36.795V343.205z" opacity="0.4537"/><path d="M434.385,343.912H397.59v-20.994h36.366v-36.369c0,0-27.271,0-36.366,0     c-38.325,0-37.645,36.369-37.645,36.369v20.994h-27.864v38.283h27.864v90.02h37.645v-90.02h36.795V343.912z" opacity="0.4507"/><path d="M435.091,344.617h-36.795v-20.994h36.366v-36.367c0,0-27.271,0-36.366,0     c-38.324,0-37.645,36.367-37.645,36.367v20.994h-27.864V382.9h27.864v90.021h37.645V382.9h36.795V344.617z" opacity="0.4478"/><path d="M435.797,345.324h-36.794V324.33h36.365v-36.367c0,0-27.27,0-36.365,0     c-38.326,0-37.645,36.367-37.645,36.367v20.994h-27.865v38.283h27.865v90.02h37.645v-90.02h36.794V345.324z" opacity="0.4448"/><path d="M436.503,346.031h-36.794v-20.994h36.365v-36.369c0,0-27.27,0-36.365,0     c-38.325,0-37.645,36.369-37.645,36.369v20.994H334.2v38.281h27.864v90.021h37.645v-90.021h36.794V346.031z" opacity="0.4418"/><path d="M437.21,346.736h-36.795v-20.994h36.365v-36.367c0,0-27.27,0-36.365,0     c-38.325,0-37.645,36.367-37.645,36.367v20.994h-27.865v38.283h27.865v90.021h37.645V385.02h36.795V346.736z" opacity="0.4388"/><path d="M437.916,347.443h-36.795v-20.994h36.366v-36.367c0,0-27.271,0-36.366,0     c-38.325,0-37.645,36.367-37.645,36.367v20.994h-27.864v38.283h27.864v90.02h37.645v-90.02h36.795V347.443z" opacity="0.4358"/><path d="M438.622,348.15h-36.795v-20.996h36.366v-36.367c0,0-27.27,0-36.366,0     c-38.324,0-37.645,36.367-37.645,36.367v20.996h-27.863v38.281h27.863v90.021h37.645v-90.021h36.795V348.15z" opacity="0.4328"/><path d="M439.329,348.855h-36.795v-20.994h36.365v-36.367c0,0-27.27,0-36.365,0     c-38.325,0-37.645,36.367-37.645,36.367v20.994h-27.865v38.283h27.865v90.021h37.645v-90.021h36.795V348.855z" opacity="0.4298"/><path d="M440.035,349.563H403.24v-20.994h36.366v-36.369c0,0-27.271,0-36.366,0     c-38.325,0-37.645,36.369-37.645,36.369v20.994h-27.864v38.283h27.864v90.02h37.645v-90.02h36.795V349.563z" opacity="0.4269"/><path d="M440.741,350.268h-36.795v-20.994h36.366v-36.367c0,0-27.271,0-36.366,0     c-38.325,0-37.645,36.367-37.645,36.367v20.994h-27.864v38.283h27.864v90.021h37.645v-90.021h36.795V350.268z" opacity="0.4239"/><path d="M441.447,350.975h-36.794V329.98h36.365v-36.367c0,0-27.271,0-36.365,0     c-38.325,0-37.645,36.367-37.645,36.367v20.994h-27.865v38.283h27.865v90.02h37.645v-90.02h36.794V350.975z" opacity="0.4209"/><path d="M442.153,351.682h-36.794v-20.994h36.365v-36.369c0,0-27.27,0-36.365,0     c-38.325,0-37.645,36.369-37.645,36.369v20.994h-27.864v38.281h27.864v90.021h37.645v-90.021h36.794V351.682z" opacity="0.4179"/><path d="M442.86,352.387h-36.795v-20.994h36.366v-36.367c0,0-27.271,0-36.366,0     c-38.325,0-37.645,36.367-37.645,36.367v20.994h-27.864v38.283h27.864v90.021h37.645V390.67h36.795V352.387z" opacity="0.4149"/><path d="M443.566,353.094h-36.795V332.1h36.366v-36.367c0,0-27.271,0-36.366,0     c-38.325,0-37.644,36.367-37.644,36.367v20.994h-27.865v38.283h27.865v90.02h37.644v-90.02h36.795V353.094z" opacity="0.4119"/><path d="M444.272,353.801h-36.795v-20.994h36.367v-36.369c0,0-27.271,0-36.367,0     c-38.324,0-37.644,36.369-37.644,36.369v20.994H341.97v38.281h27.864v90.021h37.644v-90.021h36.795V353.801z" opacity="0.409"/><path d="M444.979,354.506h-36.794v-20.994h36.365v-36.367c0,0-27.27,0-36.365,0     c-38.325,0-37.645,36.367-37.645,36.367v20.994h-27.865v38.283h27.865v90.02h37.645v-90.02h36.794V354.506z" opacity="0.406"/><path d="M445.685,355.213h-36.794v-20.994h36.366V297.85c0,0-27.271,0-36.366,0     c-38.325,0-37.645,36.369-37.645,36.369v20.994h-27.864v38.283h27.864v90.02h37.645v-90.02h36.794V355.213z" opacity="0.403"/><path d="M446.392,355.918h-36.795v-20.994h36.366v-36.367c0,0-27.271,0-36.366,0     c-38.325,0-37.645,36.367-37.645,36.367v20.994h-27.864v38.283h27.864v90.021h37.645v-90.021h36.795V355.918z" opacity="0.4"/><path d="M447.098,356.625h-36.795v-20.994h36.366v-36.367c0,0-27.27,0-36.366,0     c-38.325,0-37.644,36.367-37.644,36.367v20.994h-27.865v38.283h27.865v90.02h37.644v-90.02h36.795V356.625z" opacity="0.397"/><path d="M447.804,357.332h-36.795v-20.994h36.367v-36.369c0,0-27.271,0-36.367,0     c-38.324,0-37.645,36.369-37.645,36.369v20.994h-27.863v38.283h27.863v90.02h37.645v-90.02h36.795V357.332z" opacity="0.394"/><path d="M448.511,358.037h-36.795v-20.994h36.366v-36.367c0,0-27.271,0-36.366,0     c-38.325,0-37.645,36.367-37.645,36.367v20.994h-27.864v38.283h27.864v90.02h37.645v-90.02h36.795V358.037z" opacity="0.391"/><path d="M449.217,358.744h-36.794V337.75h36.365v-36.367c0,0-27.271,0-36.365,0     c-38.326,0-37.646,36.367-37.646,36.367v20.994h-27.864v38.283h27.864v90.02h37.646v-90.02h36.794V358.744z" opacity="0.3881"/><path d="M449.923,359.451h-36.795v-20.994h36.367v-36.369c0,0-27.271,0-36.367,0     c-38.324,0-37.645,36.369-37.645,36.369v20.994H347.62v38.281h27.863v90.021h37.645v-90.021h36.795V359.451z" opacity="0.3851"/><path d="M450.629,360.156h-36.794v-20.994H450.2v-36.367c0,0-27.27,0-36.365,0     c-38.325,0-37.645,36.367-37.645,36.367v20.994h-27.864v38.283h27.864v90.02h37.645v-90.02h36.794V360.156z" opacity="0.3821"/><path d="M451.335,360.863h-36.794v-20.994h36.366V303.5c0,0-27.271,0-36.366,0     c-38.325,0-37.645,36.369-37.645,36.369v20.994h-27.864v38.283h27.864v90.02h37.645v-90.02h36.794V360.863z" opacity="0.3791"/><path d="M452.042,361.568h-36.795v-20.994h36.366v-36.367c0,0-27.271,0-36.366,0     c-38.325,0-37.645,36.367-37.645,36.367v20.994h-27.864v38.283h27.864v90.021h37.645v-90.021h36.795V361.568z" opacity="0.3761"/><path d="M452.748,362.275h-36.794v-20.994h36.366v-36.367c0,0-27.271,0-36.366,0     c-38.326,0-37.645,36.367-37.645,36.367v20.994h-27.864v38.283h27.864v90.02h37.645v-90.02h36.794V362.275z" opacity="0.3731"/><path d="M453.454,362.982H416.66v-20.994h36.366v-36.369c0,0-27.271,0-36.366,0     c-38.325,0-37.645,36.369-37.645,36.369v20.994h-27.864v38.283h27.864v90.02h37.645v-90.02h36.794V362.982z" opacity="0.3701"/><path d="M454.16,363.688h-36.794v-20.994h36.366v-36.367c0,0-27.271,0-36.366,0     c-38.325,0-37.645,36.367-37.645,36.367v20.994h-27.864v38.283h27.864v90.02h37.645v-90.02h36.794V363.688z" opacity="0.3672"/><path d="M454.866,364.395h-36.794V343.4h36.366v-36.367c0,0-27.271,0-36.366,0     c-38.325,0-37.645,36.367-37.645,36.367v20.994h-27.864v38.283h27.864v90.02h37.645v-90.02h36.794V364.395z" opacity="0.3642"/><path d="M455.573,365.1h-36.795v-20.992h36.367v-36.369c0,0-27.271,0-36.367,0     c-38.325,0-37.645,36.369-37.645,36.369V365.1h-27.863v38.283h27.863v90.021h37.645v-90.021h36.795V365.1z" opacity="0.3612"/><path d="M456.279,365.807h-36.794v-20.994h36.366v-36.367c0,0-27.271,0-36.366,0     c-38.326,0-37.645,36.367-37.645,36.367v20.994h-27.864v38.283h27.864v90.02h37.645v-90.02h36.794V365.807z" opacity="0.3582"/><path d="M456.985,366.514h-36.794V345.52h36.366V309.15c0,0-27.271,0-36.366,0     c-38.325,0-37.645,36.369-37.645,36.369v20.994h-27.864v38.283h27.864v90.02h37.645v-90.02h36.794V366.514z" opacity="0.3552"/><path d="M457.692,367.219h-36.795v-20.994h36.367v-36.367c0,0-27.271,0-36.367,0     c-38.325,0-37.645,36.367-37.645,36.367v20.994h-27.864v38.283h27.864v90.021h37.645v-90.021h36.795V367.219z" opacity="0.3522"/><path d="M458.398,367.926h-36.794v-20.994h36.366v-36.367c0,0-27.271,0-36.366,0     c-38.326,0-37.645,36.367-37.645,36.367v20.994h-27.864v38.283h27.864v90.02h37.645v-90.02h36.794V367.926z" opacity="0.3493"/><path d="M459.104,368.633h-36.794v-20.994h36.366V311.27c0,0-27.271,0-36.366,0     c-38.325,0-37.645,36.369-37.645,36.369v20.994h-27.864v38.281h27.864v90.021h37.645v-90.021h36.794V368.633z" opacity="0.3463"/><path d="M459.811,369.338h-36.794v-20.994h36.366v-36.367c0,0-27.271,0-36.366,0     c-38.325,0-37.645,36.367-37.645,36.367v20.994h-27.864v38.283h27.864v90.02h37.645v-90.02h36.794V369.338z" opacity="0.3433"/><path d="M460.517,370.045h-36.794v-20.994h36.366v-36.367c0,0-27.271,0-36.366,0     c-38.325,0-37.645,36.367-37.645,36.367v20.994h-27.863v38.283h27.863v90.02h37.645v-90.02h36.794V370.045z" opacity="0.3403"/><path d="M461.224,370.75h-36.795v-20.992h36.367v-36.369c0,0-27.271,0-36.367,0     c-38.324,0-37.645,36.369-37.645,36.369v20.992h-27.863v38.283h27.863v90.021h37.645v-90.021h36.795V370.75z" opacity="0.3373"/><path d="M461.93,371.457h-36.794v-20.994h36.366v-36.367c0,0-27.271,0-36.366,0     c-38.326,0-37.645,36.367-37.645,36.367v20.994h-27.864v38.283h27.864v90.02h37.645v-90.02h36.794V371.457z" opacity="0.3343"/><path d="M462.636,372.164h-36.794V351.17h36.366v-36.369c0,0-27.271,0-36.366,0     c-38.325,0-37.645,36.369-37.645,36.369v20.994h-27.864v38.281h27.864v90.021h37.645v-90.021h36.794V372.164z" opacity="0.3313"/><path d="M463.342,372.869h-36.794v-20.994h36.367v-36.367c0,0-27.271,0-36.367,0     c-38.325,0-37.645,36.367-37.645,36.367v20.994H361.04v38.283h27.863v90.021h37.645v-90.021h36.794V372.869z" opacity="0.3284"/><path d="M464.048,373.576h-36.794v-20.994h36.366v-36.367c0,0-27.271,0-36.366,0     c-38.325,0-37.645,36.367-37.645,36.367v20.994h-27.863v38.283h27.863v90.02h37.645v-90.02h36.794V373.576z" opacity="0.3254"/><path d="M464.755,374.281H427.96v-20.992h36.367V316.92c0,0-27.271,0-36.367,0     c-38.324,0-37.645,36.369-37.645,36.369v20.992h-27.863v38.283h27.863v90.021h37.645v-90.021h36.795V374.281z" opacity="0.3224"/><path d="M465.461,374.988h-36.794v-20.994h36.366v-36.367c0,0-27.271,0-36.366,0     c-38.325,0-37.645,36.367-37.645,36.367v20.994h-27.863v38.283h27.863v90.02h37.645v-90.02h36.794V374.988z" opacity="0.3194"/><path d="M466.167,375.695h-36.794v-20.994h36.367v-36.367c0,0-27.271,0-36.367,0     c-38.325,0-37.645,36.367-37.645,36.367v20.994h-27.863v38.283h27.863v90.02h37.645v-90.02h36.794V375.695z" opacity="0.3164"/><path d="M466.874,376.4h-36.795v-20.994h36.367v-36.367c0,0-27.271,0-36.367,0     c-38.324,0-37.645,36.367-37.645,36.367V376.4h-27.863v38.283h27.863v90.021h37.645v-90.021h36.795V376.4z" opacity="0.3134"/><path d="M467.58,377.107h-36.794v-20.994h36.366v-36.367c0,0-27.271,0-36.366,0     c-38.325,0-37.645,36.367-37.645,36.367v20.994h-27.864v38.283h27.864v90.02h37.645v-90.02h36.794V377.107z" opacity="0.3104"/><path d="M468.286,377.814h-36.794V356.82h36.366v-36.369c0,0-27.271,0-36.366,0     c-38.325,0-37.645,36.369-37.645,36.369v20.994h-27.863v38.281h27.863v90.021h37.645v-90.021h36.794V377.814z" opacity="0.3075"/><path d="M468.992,378.52h-36.794v-20.994h36.367v-36.367c0,0-27.271,0-36.367,0     c-38.325,0-37.645,36.367-37.645,36.367v20.994H366.69v38.283h27.863v90.021h37.645v-90.021h36.794V378.52z" opacity="0.3045"/><path d="M469.698,379.227h-36.794v-20.994h36.367v-36.367c0,0-27.271,0-36.367,0     c-38.325,0-37.644,36.367-37.644,36.367v20.994h-27.864v38.283h27.864v90.02h37.644v-90.02h36.794V379.227z" opacity="0.3015"/><path d="M470.405,379.932H433.61v-20.992h36.367V322.57c0,0-27.271,0-36.367,0     c-38.324,0-37.644,36.369-37.644,36.369v20.992h-27.864v38.283h27.864v90.021h37.644v-90.021h36.795V379.932z" opacity="0.2985"/><path d="M471.111,380.639h-36.794v-20.994h36.367v-36.367c0,0-27.271,0-36.367,0     c-38.325,0-37.645,36.367-37.645,36.367v20.994H368.81v38.283h27.863v90.02h37.645v-90.02h36.794V380.639z" opacity="0.2955"/><path d="M471.817,381.346h-36.794v-20.994h36.367v-36.367c0,0-27.271,0-36.367,0     c-38.325,0-37.645,36.367-37.645,36.367v20.994h-27.863v38.283h27.863v90.02h37.645v-90.02h36.794V381.346z" opacity="0.2925"/><path d="M472.523,382.051h-36.794v-20.994h36.367v-36.367c0,0-27.271,0-36.367,0     c-38.325,0-37.645,36.367-37.645,36.367v20.994h-27.863v38.283h27.863v90.021h37.645v-90.021h36.794V382.051z" opacity="0.2896"/><path d="M473.229,382.758h-36.794v-20.994h36.367v-36.367c0,0-27.271,0-36.367,0     c-38.325,0-37.645,36.367-37.645,36.367v20.994h-27.862v38.283h27.862v90.02h37.645v-90.02h36.794V382.758z" opacity="0.2866"/><path d="M473.937,383.463h-36.795v-20.992h36.367v-36.369c0,0-27.271,0-36.367,0     c-38.324,0-37.645,36.369-37.645,36.369v20.992h-27.863v38.285h27.863v90.02h37.645v-90.02h36.795V383.463z" opacity="0.2836"/><path d="M474.644,384.17h-36.795v-20.994h36.367v-36.367c0,0-27.271,0-36.367,0     c-38.325,0-37.645,36.367-37.645,36.367v20.994h-27.863v38.283h27.863v90.021h37.645v-90.021h36.795V384.17z" opacity="0.2806"/><path d="M475.35,384.877h-36.794v-20.994h36.366v-36.367c0,0-27.271,0-36.366,0     c-38.326,0-37.646,36.367-37.646,36.367v20.994h-27.863v38.283h27.863v90.02h37.646v-90.02h36.794V384.877z" opacity="0.2776"/><path d="M476.056,385.582h-36.794V364.59h36.366v-36.369c0,0-27.271,0-36.366,0     c-38.325,0-37.646,36.369-37.646,36.369v20.992h-27.863v38.283h27.863v90.021h37.646v-90.021h36.794V385.582z" opacity="0.2746"/><path d="M476.762,386.289h-36.794v-20.994h36.367v-36.367c0,0-27.271,0-36.367,0     c-38.325,0-37.645,36.367-37.645,36.367v20.994H374.46v38.283h27.863v90.02h37.645v-90.02h36.794V386.289z" opacity="0.2716"/><path d="M477.468,386.996h-36.794v-20.994h36.367v-36.367c0,0-27.271,0-36.367,0     c-38.325,0-37.645,36.367-37.645,36.367v20.994h-27.863v38.283h27.863v90.02h37.645v-90.02h36.794V386.996z" opacity="0.2687"/><path d="M478.175,387.701H441.38v-20.994h36.367V330.34c0,0-27.271,0-36.367,0     c-38.325,0-37.645,36.367-37.645,36.367v20.994h-27.863v38.283h27.863v90.021h37.645v-90.021h36.795V387.701z" opacity="0.2657"/><path d="M478.881,388.408h-36.794v-20.994h36.366v-36.367c0,0-27.271,0-36.366,0     c-38.326,0-37.645,36.367-37.645,36.367v20.994h-27.863v38.283h27.863v90.02h37.645v-90.02h36.794V388.408z" opacity="0.2627"/><path d="M479.587,389.113h-36.794v-20.992h36.367v-36.369c0,0-27.272,0-36.367,0     c-38.325,0-37.645,36.369-37.645,36.369v20.992h-27.864v38.283h27.864v90.021h37.645v-90.021h36.794V389.113z" opacity="0.2597"/><path d="M480.294,389.82h-36.795v-20.994h36.367v-36.367c0,0-27.271,0-36.367,0     c-38.325,0-37.645,36.367-37.645,36.367v20.994h-27.863v38.283h27.863v90.02h37.645v-90.02h36.795V389.82z" opacity="0.2567"/><path d="M481,390.527h-36.795v-20.994h36.367v-36.367c0,0-27.271,0-36.367,0     c-38.325,0-37.645,36.367-37.645,36.367v20.994h-27.862v38.283h27.862v90.02h37.645v-90.02H481V390.527z" opacity="0.2537"/><path d="M481.706,391.232h-36.795V370.24h36.367v-36.369c0,0-27.271,0-36.367,0     c-38.325,0-37.644,36.369-37.644,36.369v20.992h-27.864v38.283h27.864v90.021h37.644v-90.021h36.795V391.232z" opacity="0.2507"/><path d="M482.412,391.939h-36.794v-20.994h36.367v-36.367c0,0-27.271,0-36.367,0     c-38.325,0-37.645,36.367-37.645,36.367v20.994H380.11v38.283h27.863v90.02h37.645v-90.02h36.794V391.939z" opacity="0.2478"/><path d="M483.118,392.645h-36.794v-20.992h36.367v-36.367c0,0-27.271,0-36.367,0     c-38.325,0-37.645,36.367-37.645,36.367v20.992h-27.863v38.283h27.863v90.021h37.645v-90.021h36.794V392.645z" opacity="0.2448"/><path d="M483.825,393.352H447.03v-20.992h36.367V335.99c0,0-27.271,0-36.367,0     c-38.325,0-37.645,36.369-37.645,36.369v20.992h-27.863v38.283h27.863v90.02h37.645v-90.02h36.795V393.352z" opacity="0.2418"/><path d="M484.531,394.059h-36.794v-20.994h36.366v-36.367c0,0-27.271,0-36.366,0     c-38.326,0-37.645,36.367-37.645,36.367v20.994h-27.863v38.283h27.863v90.02h37.645v-90.02h36.794V394.059z" opacity="0.2388"/><path d="M485.237,394.764h-36.794v-20.992h36.367v-36.369c0,0-27.271,0-36.367,0     c-38.325,0-37.646,36.369-37.646,36.369v20.992h-27.862v38.283h27.862v90.021h37.646v-90.021h36.794V394.764z" opacity="0.2358"/><path d="M485.943,395.471h-36.794v-20.994h36.367v-36.367c0,0-27.271,0-36.367,0     c-38.325,0-37.645,36.367-37.645,36.367v20.994h-27.863v38.283h27.863v90.02h37.645v-90.02h36.794V395.471z" opacity="0.2328"/><path d="M486.649,396.176h-36.794v-20.992h36.368v-36.367c0,0-27.272,0-36.368,0     c-38.325,0-37.645,36.367-37.645,36.367v20.992h-27.862v38.283h27.862v90.021h37.645v-90.021h36.794V396.176z" opacity="0.2298"/><path d="M487.356,396.883h-36.795v-20.992h36.367v-36.369c0,0-27.271,0-36.367,0     c-38.324,0-37.645,36.369-37.645,36.369v20.992h-27.862v38.283h27.862v90.021h37.645v-90.021h36.795V396.883z" opacity="0.2269"/><path d="M488.063,397.59h-36.794v-20.994h36.367v-36.367c0,0-27.271,0-36.367,0     c-38.326,0-37.645,36.367-37.645,36.367v20.994h-27.863v38.283h27.863v90.02h37.645v-90.02h36.794V397.59z" opacity="0.2239"/><path d="M488.769,398.295h-36.794v-20.992h36.367v-36.367c0,0-27.271,0-36.367,0     c-38.325,0-37.645,36.367-37.645,36.367v20.992h-27.863v38.283h27.863V526.6h37.645v-90.021h36.794V398.295z" opacity="0.2209"/><path d="M489.476,399.002h-36.795V378.01h36.367v-36.369c0,0-27.271,0-36.367,0     c-38.325,0-37.645,36.369-37.645,36.369v20.992h-27.863v38.283h27.863v90.02h37.645v-90.02h36.795V399.002z" opacity="0.2179"/><path d="M490.182,399.709h-36.795v-20.994h36.368v-36.367c0,0-27.271,0-36.368,0     c-38.324,0-37.645,36.367-37.645,36.367v20.994H387.88v38.283h27.862v90.02h37.645v-90.02h36.795V399.709z" opacity="0.2149"/><path d="M490.888,400.414h-36.795v-20.992h36.368v-36.369c0,0-27.272,0-36.368,0     c-38.325,0-37.644,36.369-37.644,36.369v20.992h-27.863v38.283h27.863v90.021h37.644v-90.021h36.795V400.414z" opacity="0.2119"/><path d="M491.594,401.121H454.8v-20.994h36.367V343.76c0,0-27.271,0-36.367,0     c-38.325,0-37.645,36.367-37.645,36.367v20.994h-27.863v38.283h27.863v90.02H454.8v-90.02h36.794V401.121z" opacity="0.209"/><path d="M492.3,401.826h-36.794v-20.992h36.368v-36.367c0,0-27.272,0-36.368,0     c-38.325,0-37.645,36.367-37.645,36.367v20.992h-27.862v38.283h27.862v90.021h37.645v-90.021H492.3V401.826z" opacity="0.206"/><path d="M493.007,402.533h-36.794v-20.992h36.367v-36.369c0,0-27.272,0-36.367,0     c-38.325,0-37.646,36.369-37.646,36.369v20.992h-27.862v38.283h27.862v90.021h37.646v-90.021h36.794V402.533z" opacity="0.203"/><path d="M493.713,403.24h-36.794v-20.994h36.367v-36.367c0,0-27.271,0-36.367,0     c-38.325,0-37.645,36.367-37.645,36.367v20.994h-27.863v38.283h27.863v90.02h37.645v-90.02h36.794V403.24z" opacity="0.2"/><path d="M494.419,403.945h-36.794v-20.992h36.367v-36.367c0,0-27.271,0-36.367,0     c-38.325,0-37.645,36.367-37.645,36.367v20.992h-27.863v38.283h27.863v90.021h37.645v-90.021h36.794V403.945z" opacity="0.197"/><path d="M495.125,404.652h-36.794V383.66h36.368v-36.369c0,0-27.272,0-36.368,0     c-38.325,0-37.645,36.369-37.645,36.369v20.992h-27.862v38.283h27.862v90.02h37.645v-90.02h36.794V404.652z" opacity="0.194"/><path d="M495.832,405.359h-36.795v-20.994h36.368v-36.367c0,0-27.272,0-36.368,0     c-38.325,0-37.644,36.367-37.644,36.367v20.994H393.53v38.283h27.863v90.02h37.644v-90.02h36.795V405.359z" opacity="0.191"/><path d="M496.538,406.064h-36.794v-20.992h36.367v-36.369c0,0-27.271,0-36.367,0     c-38.325,0-37.645,36.369-37.645,36.369v20.992h-27.863v38.283H422.1v90.021h37.645v-90.021h36.794V406.064z" opacity="0.1881"/><path d="M497.244,406.771H460.45v-20.992h36.367V349.41c0,0-27.271,0-36.367,0     c-38.325,0-37.645,36.369-37.645,36.369v20.992h-27.863v38.283h27.863v90.02h37.645v-90.02h36.794V406.771z" opacity="0.1851"/><path d="M497.95,407.477h-36.794v-20.992h36.367v-36.367c0,0-27.271,0-36.367,0     c-38.325,0-37.645,36.367-37.645,36.367v20.992h-27.862v38.285h27.862v90.02h37.645v-90.02h36.794V407.477z" opacity="0.1821"/><path d="M498.657,408.184h-36.795v-20.992h36.368v-36.369c0,0-27.272,0-36.368,0     c-38.325,0-37.645,36.369-37.645,36.369v20.992h-27.862v38.283h27.862v90.021h37.645v-90.021h36.795V408.184z" opacity="0.1791"/><path d="M499.363,408.891h-36.795v-20.994h36.368v-36.367c0,0-27.271,0-36.368,0     c-38.324,0-37.645,36.367-37.645,36.367v20.994h-27.862v38.283h27.862v90.02h37.645v-90.02h36.795V408.891z" opacity="0.1761"/><path d="M500.069,409.596h-36.794v-20.992h36.368v-36.369c0,0-27.272,0-36.368,0     c-38.325,0-37.645,36.369-37.645,36.369v20.992h-27.863v38.283h27.863V537.9h37.645v-90.021h36.794V409.596z" opacity="0.1731"/><path d="M500.775,410.303h-36.794v-20.992h36.368v-36.369c0,0-27.272,0-36.368,0     c-38.325,0-37.645,36.369-37.645,36.369v20.992h-27.862v38.283h27.862v90.02h37.645v-90.02h36.794V410.303z" opacity="0.1701"/><path d="M501.481,411.01h-36.793v-20.994h36.367v-36.367c0,0-27.271,0-36.367,0     c-38.326,0-37.646,36.367-37.646,36.367v20.994h-27.862v38.283h27.862v90.02h37.646v-90.02h36.793V411.01z" opacity="0.1672"/><path d="M502.188,411.715h-36.794v-20.992h36.367v-36.369c0,0-27.272,0-36.367,0     c-38.325,0-37.646,36.369-37.646,36.369v20.992h-27.862v38.283h27.862v90.021h37.646v-90.021h36.794V411.715z" opacity="0.1642"/><path d="M502.895,412.422h-36.794V391.43h36.367v-36.369c0,0-27.271,0-36.367,0     c-38.325,0-37.645,36.369-37.645,36.369v20.992h-27.862v38.283h27.862v90.02h37.645v-90.02h36.794V412.422z" opacity="0.1612"/><path d="M503.601,413.127h-36.794v-20.992h36.368v-36.367c0,0-27.272,0-36.368,0     c-38.325,0-37.645,36.367-37.645,36.367v20.992H401.3v38.283h27.862v90.021h37.645V451.41h36.794V413.127z" opacity="0.1582"/><path d="M504.307,413.834h-36.794v-20.992h36.368v-36.369c0,0-27.272,0-36.368,0     c-38.325,0-37.645,36.369-37.645,36.369v20.992h-27.862v38.283h27.862v90.021h37.645v-90.021h36.794V413.834z" opacity="0.1552"/><path d="M505.014,414.541H468.22v-20.994h36.367V357.18c0,0-27.271,0-36.367,0     c-38.326,0-37.645,36.367-37.645,36.367v20.994h-27.862v38.283h27.862v90.02h37.645v-90.02h36.794V414.541z" opacity="0.1522"/><path d="M505.72,415.246h-36.794v-20.992h36.368v-36.367c0,0-27.272,0-36.368,0     c-38.325,0-37.645,36.367-37.645,36.367v20.992h-27.862v38.283h27.862v90.021h37.645v-90.021h36.794V415.246z" opacity="0.1493"/><path d="M506.426,415.953h-36.794v-20.992H506v-36.369c0,0-27.272,0-36.368,0     c-38.325,0-37.645,36.369-37.645,36.369v20.992h-27.862v38.283h27.862v90.02h37.645v-90.02h36.794V415.953z" opacity="0.1463"/><path d="M507.132,416.66h-36.794v-20.994h36.368v-36.367c0,0-27.272,0-36.368,0     c-38.325,0-37.645,36.367-37.645,36.367v20.994h-27.862v38.281h27.862v90.021h37.645v-90.021h36.794V416.66z" opacity="0.1433"/><path d="M507.839,417.365h-36.795v-20.992h36.368v-36.369c0,0-27.271,0-36.368,0     c-38.325,0-37.644,36.369-37.644,36.369v20.992h-27.862v38.283H433.4v90.021h37.644v-90.021h36.795V417.365z" opacity="0.1403"/><path d="M508.545,418.072h-36.794v-20.994h36.368v-36.367c0,0-27.272,0-36.368,0     c-38.325,0-37.645,36.367-37.645,36.367v20.994h-27.862v38.283h27.862v90.02h37.645v-90.02h36.794V418.072z" opacity="0.1373"/><path d="M509.251,418.777h-36.794v-20.992h36.368v-36.367c0,0-27.272,0-36.368,0     c-38.325,0-37.645,36.367-37.645,36.367v20.992H406.95v38.283h27.862v90.021h37.645v-90.021h36.794V418.777z" opacity="0.1343"/><path d="M509.957,419.484h-36.794v-20.992h36.368v-36.369c0,0-27.272,0-36.368,0     c-38.324,0-37.645,36.369-37.645,36.369v20.992h-27.862v38.283h27.862v90.021h37.645v-90.021h36.794V419.484z" opacity="0.1313"/><path d="M510.663,420.191H473.87v-20.994h36.367V362.83c0,0-27.271,0-36.367,0     c-38.326,0-37.646,36.367-37.646,36.367v20.994h-27.861v38.283h27.861v90.02h37.646v-90.02h36.793V420.191z" opacity="0.1284"/><path d="M511.37,420.896h-36.794v-20.992h36.368v-36.369c0,0-27.272,0-36.368,0     c-38.325,0-37.645,36.369-37.645,36.369v20.992h-27.862v38.283h27.862v90.021h37.645V459.18h36.794V420.896z" opacity="0.1254"/><path d="M512.076,421.604h-36.794v-20.994h36.368v-36.367c0,0-27.272,0-36.368,0     c-38.325,0-37.645,36.367-37.645,36.367v20.994h-27.862v38.283h27.862v90.02h37.645v-90.02h36.794V421.604z" opacity="0.1224"/><path d="M512.782,422.311h-36.794v-20.994h36.368v-36.367c0,0-27.272,0-36.368,0     c-38.325,0-37.645,36.367-37.645,36.367v20.994h-27.862v38.281h27.862v90.021h37.645v-90.021h36.794V422.311z" opacity="0.1194"/><path d="M513.488,423.016h-36.794v-20.992h36.369v-36.369c0,0-27.273,0-36.369,0     c-38.325,0-37.645,36.369-37.645,36.369v20.992h-27.861v38.283h27.861v90.021h37.645v-90.021h36.794V423.016z" opacity="0.1164"/><path d="M514.195,423.723h-36.794v-20.994h36.368v-36.367c0,0-27.272,0-36.368,0     c-38.325,0-37.645,36.367-37.645,36.367v20.994h-27.862v38.283h27.862v90.02h37.645v-90.02h36.794V423.723z" opacity="0.1134"/><path d="M514.901,424.428h-36.794v-20.992h36.368v-36.367c0,0-27.272,0-36.368,0     c-38.325,0-37.645,36.367-37.645,36.367v20.992h-27.862v38.283h27.862v90.021h37.645v-90.021h36.794V424.428z" opacity="0.1104"/><path d="M515.607,425.135h-36.794v-20.992h36.368v-36.369c0,0-27.272,0-36.368,0     c-38.325,0-37.645,36.369-37.645,36.369v20.992h-27.861v38.283h27.861v90.02h37.645v-90.02h36.794V425.135z" opacity="0.1075"/><path d="M516.313,425.842H479.52v-20.994h36.368V368.48c0,0-27.272,0-36.368,0     c-38.324,0-37.645,36.367-37.645,36.367v20.994h-27.862v38.283h27.862v90.02h37.645v-90.02h36.794V425.842z" opacity="0.1045"/><path d="M517.021,426.547h-36.794v-20.992h36.368v-36.367c0,0-27.272,0-36.368,0     c-38.325,0-37.645,36.367-37.645,36.367v20.992H414.72v38.283h27.862v90.021h37.645V464.83h36.794V426.547z" opacity="0.1015"/><path d="M517.727,427.254h-36.794v-20.992h36.368v-36.369c0,0-27.272,0-36.368,0     c-38.325,0-37.645,36.369-37.645,36.369v20.992h-27.862v38.283h27.862v90.02h37.645v-90.02h36.794V427.254z" opacity="0.0985"/><path d="M518.433,427.961h-36.794v-20.994h36.369V370.6c0,0-27.273,0-36.369,0     c-38.325,0-37.645,36.367-37.645,36.367v20.994h-27.862v38.281h27.862v90.021h37.645v-90.021h36.794V427.961z" opacity="0.0955"/><path d="M519.14,428.666h-36.794v-20.992h36.368v-36.369c0,0-27.272,0-36.368,0     c-38.325,0-37.645,36.369-37.645,36.369v20.992h-27.862v38.283h27.862v90.02h37.645v-90.02h36.794V428.666z" opacity="0.0925"/><path d="M519.846,429.373h-36.794v-20.994h36.368v-36.367c0,0-27.273,0-36.368,0     c-38.325,0-37.645,36.367-37.645,36.367v20.994h-27.862v38.283h27.862v90.02h37.645v-90.02h36.794V429.373z" opacity="0.0896"/><path d="M520.552,430.078h-36.794v-20.992h36.368v-36.367c0,0-27.272,0-36.368,0     c-38.325,0-37.645,36.367-37.645,36.367v20.992h-27.862v38.283h27.862v90.021h37.645v-90.021h36.794V430.078z" opacity="0.0866"/><path d="M521.258,430.785h-36.794v-20.992h36.368v-36.369c0,0-27.272,0-36.368,0     c-38.325,0-37.645,36.369-37.645,36.369v20.992h-27.861v38.283h27.861v90.02h37.645v-90.02h36.794V430.785z" opacity="0.0836"/><path d="M521.965,431.492h-36.794v-20.994h36.368v-36.367c0,0-27.273,0-36.368,0     c-38.326,0-37.645,36.367-37.645,36.367v20.994h-27.862v38.283h27.862v90.02h37.645v-90.02h36.794V431.492z" opacity="0.0806"/><path d="M522.671,432.197h-36.794v-20.992h36.368v-36.369c0,0-27.272,0-36.368,0     c-38.325,0-37.646,36.369-37.646,36.369v20.992H420.37v38.283h27.861v90.021h37.646V470.48h36.794V432.197z" opacity="0.0776"/><path d="M523.377,432.904h-36.794v-20.992h36.369v-36.369c0,0-27.273,0-36.369,0     c-38.325,0-37.645,36.369-37.645,36.369v20.992h-27.861v38.283h27.861v90.02h37.645v-90.02h36.794V432.904z" opacity="0.0746"/><path d="M524.083,433.611h-36.794v-20.994h36.369V376.25c0,0-27.273,0-36.369,0     c-38.325,0-37.645,36.367-37.645,36.367v20.994h-27.862v38.281h27.862v90.021h37.645v-90.021h36.794V433.611z" opacity="0.0716"/><path d="M524.79,434.316h-36.795v-20.992h36.369v-36.369c0,0-27.273,0-36.369,0     c-38.325,0-37.645,36.369-37.645,36.369v20.992h-27.861V472.6h27.861v90.02h37.645V472.6h36.795V434.316z" opacity="0.0687"/><path d="M525.496,435.023h-36.794v-20.994h36.368v-36.367c0,0-27.272,0-36.368,0     c-38.325,0-37.645,36.367-37.645,36.367v20.994h-27.862v38.283h27.862v90.02h37.645v-90.02h36.794V435.023z" opacity="0.0657"/><path d="M526.202,435.729h-36.794v-20.992h36.368v-36.367c0,0-27.272,0-36.368,0     c-38.325,0-37.645,36.367-37.645,36.367v20.992h-27.862v38.283h27.862v90.021h37.645v-90.021h36.794V435.729z" opacity="0.0627"/><path d="M526.908,436.436h-36.794v-20.992h36.369v-36.369c0,0-27.273,0-36.369,0     c-38.325,0-37.645,36.369-37.645,36.369v20.992h-27.861v38.283h27.861v90.02h37.645v-90.02h36.794V436.436z" opacity="0.0597"/><path d="M527.615,437.143H490.82v-20.994h36.369v-36.367c0,0-27.273,0-36.369,0     c-38.325,0-37.645,36.367-37.645,36.367v20.994h-27.861v38.283h27.861v90.02h37.645v-90.02h36.795V437.143z" opacity="0.0567"/><path d="M528.321,437.848h-36.794v-20.992h36.368v-36.367c0,0-27.272,0-36.368,0     c-38.325,0-37.645,36.367-37.645,36.367v20.992h-27.862v38.283h27.862v90.021h37.645v-90.021h36.794V437.848z" opacity="0.0537"/><path d="M529.027,438.555h-36.794v-20.992h36.369v-36.369c0,0-27.273,0-36.369,0     c-38.325,0-37.645,36.369-37.645,36.369v20.992h-27.861v38.283h27.861v90.02h37.645v-90.02h36.794V438.555z" opacity="0.0507"/><path d="M529.733,439.26h-36.794v-20.992h36.369V381.9c0,0-27.273,0-36.369,0     c-38.325,0-37.645,36.367-37.645,36.367v20.992h-27.861v38.283h27.861v90.021h37.645v-90.021h36.794V439.26z" opacity="0.0478"/><path d="M530.44,439.967h-36.795v-20.992h36.369v-36.369c0,0-27.273,0-36.369,0     c-38.325,0-37.645,36.369-37.645,36.369v20.992H428.14v38.283h27.861v90.02h37.645v-90.02h36.795V439.967z" opacity="0.0448"/><path d="M531.146,440.674h-36.794V419.68h36.368v-36.367c0,0-27.273,0-36.368,0     c-38.325,0-37.645,36.367-37.645,36.367v20.994h-27.862v38.283h27.862v90.02h37.645v-90.02h36.794V440.674z" opacity="0.0418"/><path d="M531.853,441.379h-36.794v-20.992h36.369V384.02c0,0-27.273,0-36.369,0     c-38.325,0-37.645,36.367-37.645,36.367v20.992h-27.861v38.283h27.861v90.021h37.645v-90.021h36.794V441.379z" opacity="0.0388"/><path d="M532.559,442.086h-36.794v-20.992h36.369v-36.369c0,0-27.273,0-36.369,0     c-38.325,0-37.645,36.369-37.645,36.369v20.992h-27.861v38.283h27.861v90.02h37.645v-90.02h36.794V442.086z" opacity="0.0358"/><path d="M533.265,442.791h-36.794v-20.992h36.369v-36.367c0,0-27.273,0-36.369,0     c-38.325,0-37.644,36.367-37.644,36.367v20.992h-27.862v38.283h27.862v90.021h37.644v-90.021h36.794V442.791z" opacity="0.0328"/><path d="M533.972,443.498h-36.795v-20.992h36.369v-36.369c0,0-27.273,0-36.369,0     c-38.325,0-37.644,36.369-37.644,36.369v20.992h-27.862v38.283h27.862v90.021h37.644v-90.021h36.795V443.498z" opacity="0.0299"/><path d="M534.677,444.205h-36.793v-20.992h36.368v-36.369c0,0-27.273,0-36.368,0     c-38.325,0-37.645,36.369-37.645,36.369v20.992h-27.862v38.283h27.862v90.02h37.645v-90.02h36.793V444.205z" opacity="0.0269"/><path d="M535.384,444.91H498.59v-20.992h36.369v-36.367c0,0-27.273,0-36.369,0     c-38.325,0-37.645,36.367-37.645,36.367v20.992h-27.861v38.283h27.861v90.021h37.645v-90.021h36.794V444.91z" opacity="0.0239"/><path d="M536.09,445.617h-36.793v-20.992h36.369v-36.369c0,0-27.274,0-36.369,0     c-38.325,0-37.646,36.369-37.646,36.369v20.992H433.79V483.9h27.861v90.02h37.646V483.9h36.793V445.617z" opacity="0.0209"/><path d="M536.797,446.322h-36.794V425.33h36.369v-36.367c0,0-27.273,0-36.369,0     c-38.325,0-37.646,36.367-37.646,36.367v20.992h-27.861v38.283h27.861v90.021h37.646v-90.021h36.794V446.322z" opacity="0.0179"/><path d="M537.502,447.029h-36.793v-20.992h36.369V389.67c0,0-27.273,0-36.369,0     c-38.325,0-37.645,36.367-37.645,36.367v20.992h-27.861v38.283h27.861v90.021h37.645v-90.021h36.793V447.029z" opacity="0.0149"/><path d="M538.209,447.736h-36.794v-20.992h36.369v-36.369c0,0-27.273,0-36.369,0     c-38.325,0-37.645,36.369-37.645,36.369v20.992h-27.861v38.283h27.861v90.02h37.645v-90.02h36.794V447.736z" opacity="0.0119"/><path d="M538.915,448.441h-36.794v-20.99h36.369v-36.369c0,0-27.273,0-36.369,0     c-38.325,0-37.645,36.369-37.645,36.369v20.99h-27.86v38.283h27.86v90.021h37.645v-90.021h36.794V448.441z" opacity="0.009"/><path d="M539.622,449.148h-36.794v-20.992h36.369v-36.369c0,0-27.274,0-36.369,0     c-38.326,0-37.646,36.369-37.646,36.369v20.992h-27.861v38.283h27.861v90.02h37.646v-90.02h36.794V449.148z" opacity="0.006"/><path d="M540.327,449.854h-36.793v-20.99h36.369v-36.369c0,0-27.273,0-36.369,0     c-38.325,0-37.645,36.369-37.645,36.369v20.99h-27.861v38.283h27.861v90.021h37.645v-90.021h36.793V449.854z" opacity="0.003"/><path d="M541.034,450.561H504.24v-20.992h36.369v-36.367c0,0-27.273,0-36.369,0     c-38.325,0-37.645,36.367-37.645,36.367v20.992h-27.861v38.283h27.861v90.021h37.645v-90.021h36.794V450.561z" opacity="0"/></g></g><path d="M304.426,213.954h-36.795v-20.997h36.361V156.59c0,0-27.266,0-36.361,0   c-38.325,0-37.645,36.367-37.645,36.367v20.997h-27.869v38.282h27.869v90.02h37.645v-90.02h36.795V213.954z" fill="#FFFFFF"/></g></svg>